Coordinates
nRows=4
nColumns=38

# SIMM Motion File Header:
name Coordinates
datacolumns 38
datarows 4
otherdata 1
range 1.65300000000000000000 1.65599999999999990000

Units are S.I. units (second, meters, Newtons, ...)
Angles are in degrees.

endheader
time	pelvis_tilt	pelvis_list	pelvis_rotation	pelvis_tx	pelvis_ty	pelvis_tz	hip_flexion_r	hip_adduction_r	hip_rotation_r	knee_angle_r	ankle_angle_r	subtalar_angle_r	mtp_angle_r	hip_flexion_l	hip_adduction_l	hip_rotation_l	knee_angle_l	ankle_angle_l	subtalar_angle_l	mtp_angle_l	lumbar_extension	lumbar_bending	lumbar_rotation	arm_flex_r	arm_add_r	arm_rot_r	elbow_flex_r	pro_sup_r	wrist_flex_r	wrist_dev_r	arm_flex_l	arm_add_l	arm_rot_l	elbow_flex_l	pro_sup_l	wrist_flex_l	wrist_dev_l
      1.65300000000000000000	     -9.66762461136821470000	     -2.25169750943521190000	      0.20513066176308317000	      0.76633167667529078000	      0.97067973354341130000	     -0.31429693325010899000	     12.12071539238872800000	      7.09517398531570100000	     -4.98102686334856860000	    -36.76533412684195700000	     14.07970220126658700000	     -0.00000000000001886219	      0.00000000000002154785	     44.98842383444269200000	      0.46224925114485538000	     -2.34241095969551690000	   -119.12785495934592000000	     -2.31214781129344930000	     -0.00000000000000274130	      0.00000000000000139549	     -1.35944475003791140000	      8.58125944984368870000	      4.84639356314668660000	     -6.76008887759162210000	    -23.11020874901156600000	      0.72183218663328130000	     96.88176573122129300000	     77.26419001042144400000	      0.00000000000000792483	      0.00000000000000303789	    -20.83149595363320100000	    -36.80625995345054900000	     29.47426590258677600000	     92.37287193203924600000	     74.49110126871023900000	      0.00000000000000165073	     -0.00000000000000122667
      1.65399999999999990000	     -9.72535233432923540000	     -2.16456459094282440000	      0.20049896465385669000	      0.76639142310558095000	      0.97113100897011273000	     -0.31424794628713820000	     11.82213739062796500000	      7.00569466376458920000	     -4.94785350298381040000	    -36.54584328536971300000	     13.77300873286064200000	     -0.00000000000001895498	      0.00000000000002205607	     45.30771878100809100000	      0.56492561547656062000	     -2.40183194902443060000	   -118.79489548338411000000	     -2.28455734072983900000	     -0.00000000000000273441	      0.00000000000000137061	     -1.27621006635259530000	      8.47288263581410740000	      4.98861373438768490000	     -6.72207286770882200000	    -23.04939213523839200000	      0.66274883298013243000	     97.08505908038434000000	     77.41066607561548100000	      0.00000000000000798642	      0.00000000000000305150	    -21.03711943374728600000	    -36.91201513951263300000	     29.49157292301338600000	     92.55569567037861100000	     74.21680424643415100000	      0.00000000000000163355	     -0.00000000000000134031
      1.65500000000000000000	     -9.78195041092465980000	     -2.07626004473311590000	      0.19490529679587434000	      0.76645810859176111000	      0.97159241415031017000	     -0.31419610710062901000	     11.52280166373354900000	      6.91488321586498960000	     -4.91386641539983590000	    -36.32491845665273900000	     13.45652701878714600000	     -0.00000000000001903245	      0.00000000000002248122	     45.62034734019548000000	      0.66597066047876985000	     -2.46319224845877160000	   -118.45340317353566000000	     -2.25812171184266130000	     -0.00000000000000272899	      0.00000000000000133525	     -1.19388483099943250000	      8.36263323225271730000	      5.13130322515389280000	     -6.68603021362554010000	    -22.98797447340397000000	      0.60449508119173168000	     97.28823478491955300000	     77.55640768030352200000	      0.00000000000000804833	      0.00000000000000306502	    -21.24517726410100900000	    -37.01760232721773700000	     29.50471704708075300000	     92.74049164386529800000	     73.94244806634374400000	      0.00000000000000161758	     -0.00000000000000145948
      1.65599999999999990000	     -9.83751954281795800000	     -1.98684986629095350000	      0.18835538658995807000	      0.76653162476301651000	      0.97206349974223505000	     -0.31414138678988485000	     11.22293312785620100000	      6.82278801187909960000	     -4.87912255593713960000	    -36.10271240377262800000	     13.13022985787210800000	     -0.00000000000001908985	      0.00000000000002287196	     45.92641807219855100000	      0.76529542626940550000	     -2.52640847545362450000	   -118.10352372487870000000	     -2.23286808586521970000	     -0.00000000000000272386	      0.00000000000000128219	     -1.11234656175875530000	      8.25058978512453930000	      5.27440921636145530000	     -6.65195510544165990000	    -22.92595179408595400000	      0.54711583050715384000	     97.49122076590846600000	     77.70126913274376100000	      0.00000000000000811078	      0.00000000000000307765	    -21.45572453639953300000	    -37.12293749722782400000	     29.51360458557197600000	     92.92707656460270000000	     73.66839667147991100000	      0.00000000000000160261	     -0.00000000000000156183
